<?xml version="1.0" standalone="no"?>
<!DOCTYPE svg PUBLIC "-//W3C//DTD SVG 20010904//EN"
 "http://www.w3.org/TR/2001/REC-SVG-20010904/DTD/svg10.dtd">
<svg version="1.0" xmlns="http://www.w3.org/2000/svg"
 width="279.000000pt" height="98.000000pt" viewBox="0 0 279.000000 98.000000"
 preserveAspectRatio="xMidYMid meet">

<g transform="translate(0.000000,98.000000) scale(0.100000,-0.100000)"
fill="var(--logo)" stroke="none">
<path d="M1709 843 c-82 -91 -237 -314 -270 -387 -28 -64 -88 -106 -150 -106
l-31 0 54 59 c59 63 88 114 88 155 0 45 -49 31 -135 -39 -31 -26 -59 -44 -62
-42 -8 8 46 94 94 150 48 57 54 77 20 77 -31 0 -52 -21 -141 -138 -125 -166
-205 -232 -241 -202 -23 19 -18 47 16 95 24 33 30 50 25 69 -3 14 -1 34 6 45
18 30 -6 54 -46 45 -59 -12 -165 -76 -215 -129 -59 -62 -65 -98 -31 -165 29
-58 54 -54 125 20 31 34 59 59 61 57 2 -2 -1 -19 -6 -38 -36 -123 16 -131 134
-19 41 39 100 102 132 140 32 38 60 68 62 65 6 -6 -82 -168 -130 -238 -53 -78
-78 -135 -78 -179 0 -73 34 -38 85 85 41 97 27 90 137 64 56 -13 92 0 163 59
23 18 45 34 49 34 3 0 6 -13 6 -29 0 -16 7 -35 16 -42 14 -12 22 -7 57 36 60
73 146 159 153 153 3 -3 -9 -29 -26 -56 -88 -144 -42 -207 74 -101 53 49 76
55 76 22 0 -27 34 -73 54 -73 12 0 49 28 85 63 51 50 62 57 57 37 -13 -54 -16
-96 -7 -109 15 -23 59 -4 116 49 28 28 54 50 57 50 3 0 8 -13 11 -28 10 -50
39 -76 84 -75 50 1 74 14 134 70 l47 43 11 -45 c7 -28 20 -51 36 -61 22 -14
27 -14 60 2 38 17 115 100 115 122 0 8 -19 -2 -44 -22 -47 -39 -76 -45 -97
-20 -25 31 -16 79 25 124 48 53 118 162 139 218 19 47 23 122 7 122 -25 0 -76
-51 -125 -125 -59 -88 -90 -153 -109 -230 -11 -41 -21 -56 -62 -87 -60 -47
-107 -58 -134 -33 -36 32 -25 51 50 91 86 45 122 84 118 128 -2 23 -8 32 -26
34 -66 10 -176 -67 -216 -151 -20 -42 -35 -59 -70 -77 -37 -20 -47 -22 -60
-11 -23 19 -20 38 15 93 22 34 30 56 26 75 -3 15 0 34 6 44 17 28 -9 52 -47
43 -80 -17 -256 -141 -256 -180 0 -16 -82 -74 -105 -74 -40 0 -24 53 39 129
29 35 34 46 26 62 -6 10 -19 19 -29 19 -23 0 -96 -58 -166 -129 -27 -28 -53
-51 -57 -51 -23 0 -2 49 46 103 123 142 264 347 251 366 -12 21 -43 10 -76
-26z m931 -117 c0 -37 -119 -223 -127 -199 -6 16 34 114 67 166 28 45 60 62
60 33z m-280 -176 c0 -25 -96 -110 -125 -110 -14 0 -2 32 22 61 45 53 103 81
103 49z m-1451 -42 c-77 -101 -155 -168 -179 -153 -20 12 -9 56 23 90 29 32
176 119 186 110 2 -2 -11 -23 -30 -47z m1106 5 c-37 -50 -103 -120 -138 -145
-22 -16 -31 -17 -42 -8 -40 34 10 98 125 159 41 22 76 38 79 36 2 -3 -9 -21
-24 -42z m-692 -33 c-3 -11 -23 -40 -45 -65 -34 -39 -45 -45 -79 -45 -21 0
-39 5 -39 10 0 15 80 100 114 121 34 21 57 11 49 -21z"/>
<path d="M307 830 c-42 -11 -90 -26 -106 -35 -33 -17 -71 -72 -71 -104 0 -20
4 -21 83 -19 45 0 67 3 50 5 -36 5 -43 18 -14 28 47 15 161 32 161 24 0 -5
-31 -51 -69 -103 -64 -86 -72 -94 -110 -100 -32 -5 -46 -13 -61 -39 -20 -32
-20 -32 -1 -45 19 -13 18 -16 -30 -89 -54 -84 -60 -106 -28 -101 15 2 35 25
61 68 22 36 45 70 51 77 9 10 54 -9 202 -82 135 -67 192 -91 197 -82 16 25 8
86 -13 106 -21 19 -215 106 -292 131 -20 6 -35 15 -32 19 2 5 44 11 92 15 115
8 249 41 294 71 69 45 100 155 59 207 -34 44 -92 61 -225 64 -94 3 -136 0
-198 -16z m365 -106 c16 -8 28 -23 28 -34 0 -24 -50 -62 -110 -84 -70 -25
-245 -64 -248 -56 -2 5 18 37 43 71 25 35 49 75 52 90 4 20 13 29 32 33 46 8
173 -5 203 -20z"/>
</g>
</svg>
